STARTFONT 2.1
FONT -Monotype-Century Schoolbook-Regular-I-Normal--14-100-100-100-P-70-iso8859-4
SIZE 10 100 100
FONTBOUNDINGBOX 16 18 -2 -4

STARTPROPERTIES 24
FOUNDRY "Monotype"
FAMILY_NAME "Century Schoolbook"
WEIGHT_NAME "Regular"
SLANT "I"
SETWIDTH_NAME "Normal"
ADD_STYLE_NAME ""
PIXEL_SIZE 14
POINT_SIZE 100
RESOLUTION_X 100
RESOLUTION_Y 100
SPACING "P"
AVERAGE_WIDTH 70
CHARSET_REGISTRY "iso8859"
CHARSET_ENCODING "4"
FACE_NAME "Century Schoolbook it ISO Latin4"
_DEC_DEVICE_FONTNAMES "PS=centuryschoolbook-italic-lat4"
COPYRIGHT "Copyright (c) 1994 Monotype Typography Ltd."
CAP_HEIGHT 12
X_HEIGHT 8
WEIGHT 10
QUAD_WIDTH 8
DEFAULT_CHAR 160
FONT_DESCENT 4
FONT_ASCENT 14
ENDPROPERTIES

CHARS 191

STARTCHAR space
ENCODING 32
SWIDTH 278 0
DWIDTH 4 0
BBX 0 0 0 0
BITMAP
ENDCHAR

STARTCHAR exclam
ENCODING 33
SWIDTH 333 0
DWIDTH 5 0
BBX 3 10 1 0
BITMAP
20
20
20
20
40
40
40
00
00
80
ENDCHAR

STARTCHAR quotedbl
ENCODING 34
SWIDTH 400 0
DWIDTH 6 0
BBX 5 4 2 6
BITMAP
48
48
90
90
ENDCHAR

STARTCHAR numbersign
ENCODING 35
SWIDTH 606 0
DWIDTH 8 0
BBX 8 10 1 0
BITMAP
12
12
12
7F
24
24
FE
48
48
48
ENDCHAR

STARTCHAR dollar
ENCODING 36
SWIDTH 556 0
DWIDTH 8 0
BBX 7 13 1 -2
BITMAP
04
1C
26
2A
28
18
08
14
94
94
78
20
20
ENDCHAR

STARTCHAR percent
ENCODING 37
SWIDTH 833 0
DWIDTH 12 0
BBX 10 10 2 0
BITMAP
2100
5100
9200
9400
A480
4940
1240
1240
2280
4100
ENDCHAR

STARTCHAR ampersand
ENCODING 38
SWIDTH 852 0
DWIDTH 12 0
BBX 11 10 0 0
BITMAP
0700
0880
0900
0E00
3CE0
4440
8440
8280
4320
3DC0
ENDCHAR

STARTCHAR quoteright
ENCODING 39
SWIDTH 204 0
DWIDTH 3 0
BBX 2 3 1 7
BITMAP
40
40
80
ENDCHAR

STARTCHAR parenleft
ENCODING 40
SWIDTH 333 0
DWIDTH 5 0
BBX 5 13 1 -3
BITMAP
18
20
40
40
80
80
80
80
80
80
80
40
20
ENDCHAR

STARTCHAR parenright
ENCODING 41
SWIDTH 333 0
DWIDTH 5 0
BBX 5 12 -1 -2
BITMAP
20
10
08
08
08
08
08
08
10
10
20
C0
ENDCHAR

STARTCHAR asterisk
ENCODING 42
SWIDTH 500 0
DWIDTH 7 0
BBX 5 6 2 4
BITMAP
20
20
F8
20
50
50
ENDCHAR

STARTCHAR plus
ENCODING 43
SWIDTH 606 0
DWIDTH 8 0
BBX 7 7 1 1
BITMAP
10
10
10
FE
10
10
10
ENDCHAR

STARTCHAR comma
ENCODING 44
SWIDTH 278 0
DWIDTH 4 0
BBX 2 4 1 -2
BITMAP
40
40
40
80
ENDCHAR

STARTCHAR minus
ENCODING 45
SWIDTH 606 0
DWIDTH 8 0
BBX 8 1 1 4
BITMAP
FF
ENDCHAR

STARTCHAR period
ENCODING 46
SWIDTH 278 0
DWIDTH 4 0
BBX 1 1 2 0
BITMAP
80
ENDCHAR

STARTCHAR slash
ENCODING 47
SWIDTH 606 0
DWIDTH 8 0
BBX 6 10 2 0
BITMAP
04
08
08
10
10
20
20
40
40
80
ENDCHAR

STARTCHAR zero
ENCODING 48
SWIDTH 556 0
DWIDTH 8 0
BBX 7 10 1 0
BITMAP
1C
22
42
42
82
82
84
84
88
70
ENDCHAR

STARTCHAR one
ENCODING 49
SWIDTH 556 0
DWIDTH 8 0
BBX 5 10 1 0
BITMAP
08
38
08
08
10
10
10
20
20
F8
ENDCHAR

STARTCHAR two
ENCODING 50
SWIDTH 556 0
DWIDTH 8 0
BBX 8 10 0 0
BITMAP
1E
21
21
11
02
04
18
22
42
FE
ENDCHAR

STARTCHAR three
ENCODING 51
SWIDTH 556 0
DWIDTH 8 0
BBX 7 10 1 0
BITMAP
1C
22
22
04
38
04
44
84
88
70
ENDCHAR

STARTCHAR four
ENCODING 52
SWIDTH 556 0
DWIDTH 8 0
BBX 7 10 1 0
BITMAP
02
06
0A
12
24
44
FE
08
08
3E
ENDCHAR

STARTCHAR five
ENCODING 53
SWIDTH 556 0
DWIDTH 8 0
BBX 7 10 1 0
BITMAP
32
2C
20
78
44
04
44
84
88
70
ENDCHAR

STARTCHAR six
ENCODING 54
SWIDTH 556 0
DWIDTH 8 0
BBX 7 10 1 0
BITMAP
1C
22
42
40
F8
84
84
84
88
70
ENDCHAR

STARTCHAR seven
ENCODING 55
SWIDTH 556 0
DWIDTH 8 0
BBX 7 10 2 0
BITMAP
7E
44
88
10
10
20
20
40
40
40
ENDCHAR

STARTCHAR eight
ENCODING 56
SWIDTH 556 0
DWIDTH 8 0
BBX 7 10 1 0
BITMAP
3C
42
42
24
38
48
84
84
84
78
ENDCHAR

STARTCHAR nine
ENCODING 57
SWIDTH 556 0
DWIDTH 8 0
BBX 7 10 1 0
BITMAP
1C
22
42
42
42
3E
04
84
88
70
ENDCHAR

STARTCHAR colon
ENCODING 58
SWIDTH 278 0
DWIDTH 4 0
BBX 2 7 1 0
BITMAP
40
00
00
00
00
00
80
ENDCHAR

STARTCHAR semicolon
ENCODING 59
SWIDTH 278 0
DWIDTH 4 0
BBX 3 9 0 -2
BITMAP
20
00
00
00
00
00
40
40
80
ENDCHAR

STARTCHAR less
ENCODING 60
SWIDTH 606 0
DWIDTH 8 0
BBX 8 7 1 1
BITMAP
03
0C
30
C0
30
0C
03
ENDCHAR

STARTCHAR equal
ENCODING 61
SWIDTH 606 0
DWIDTH 8 0
BBX 8 3 1 3
BITMAP
FF
00
FF
ENDCHAR

STARTCHAR greater
ENCODING 62
SWIDTH 606 0
DWIDTH 8 0
BBX 8 7 1 1
BITMAP
C0
30
0C
03
0C
30
C0
ENDCHAR

STARTCHAR question
ENCODING 63
SWIDTH 444 0
DWIDTH 6 0
BBX 5 10 1 0
BITMAP
30
48
88
30
40
A0
40
00
00
80
ENDCHAR

STARTCHAR at
ENCODING 64
SWIDTH 747 0
DWIDTH 10 0
BBX 10 12 1 -2
BITMAP
0F00
3080
4040
4540
8B40
9140
9240
9680
5B40
4040
3180
0E00
ENDCHAR

STARTCHAR A
ENCODING 65
SWIDTH 704 0
DWIDTH 10 0
BBX 9 10 0 0
BITMAP
0100
0300
0500
0500
0900
1100
1F00
2100
4100
E380
ENDCHAR

STARTCHAR B
ENCODING 66
SWIDTH 722 0
DWIDTH 10 0
BBX 10 10 0 0
BITMAP
3F80
1040
1040
2080
3F00
2100
2080
4080
4100
FE00
ENDCHAR

STARTCHAR C
ENCODING 67
SWIDTH 722 0
DWIDTH 10 0
BBX 9 10 1 0
BITMAP
0E80
3180
4100
4000
8000
8000
8000
8100
4200
3C00
ENDCHAR

STARTCHAR D
ENCODING 68
SWIDTH 778 0
DWIDTH 11 0
BBX 10 10 0 0
BITMAP
3F00
1080
1040
2040
2040
2040
2080
4080
4100
FE00
ENDCHAR

STARTCHAR E
ENCODING 69
SWIDTH 722 0
DWIDTH 10 0
BBX 10 10 0 0
BITMAP
3FC0
1040
1040
2200
3E00
2400
2480
4080
4100
FF00
ENDCHAR

STARTCHAR F
ENCODING 70
SWIDTH 667 0
DWIDTH 9 0
BBX 9 10 0 0
BITMAP
3F80
1080
1080
2200
3E00
2400
2400
4000
4000
E000
ENDCHAR

STARTCHAR G
ENCODING 71
SWIDTH 778 0
DWIDTH 11 0
BBX 10 10 1 0
BITMAP
0F40
30C0
4080
4000
8000
8380
8100
8100
4300
3D00
ENDCHAR

STARTCHAR H
ENCODING 72
SWIDTH 833 0
DWIDTH 12 0
BBX 12 10 0 0
BITMAP
3870
1020
1020
2040
3FC0
2040
2040
4080
4080
E1C0
ENDCHAR

STARTCHAR I
ENCODING 73
SWIDTH 407 0
DWIDTH 5 0
BBX 5 10 0 0
BITMAP
38
10
10
20
20
20
20
40
40
E0
ENDCHAR

STARTCHAR J
ENCODING 74
SWIDTH 611 0
DWIDTH 9 0
BBX 8 10 1 0
BITMAP
07
02
02
04
04
04
44
88
88
70
ENDCHAR

STARTCHAR K
ENCODING 75
SWIDTH 741 0
DWIDTH 10 0
BBX 10 10 0 0
BITMAP
39C0
1080
1100
2200
2C00
3400
2200
4200
4100
E380
ENDCHAR

STARTCHAR L
ENCODING 76
SWIDTH 667 0
DWIDTH 9 0
BBX 8 10 0 0
BITMAP
38
10
10
20
20
20
21
41
42
FE
ENDCHAR

STARTCHAR M
ENCODING 77
SWIDTH 944 0
DWIDTH 13 0
BBX 13 10 0 0
BITMAP
3838
1870
1850
28A0
2920
2920
2620
4440
4440
E4E0
ENDCHAR

STARTCHAR N
ENCODING 78
SWIDTH 815 0
DWIDTH 11 0
BBX 11 10 0 0
BITMAP
30E0
1040
1840
2880
2480
2480
2280
4300
4100
E100
ENDCHAR

STARTCHAR O
ENCODING 79
SWIDTH 778 0
DWIDTH 11 0
BBX 9 10 1 0
BITMAP
1E00
2100
4080
4080
8080
8080
8100
8100
4200
3C00
ENDCHAR

STARTCHAR P
ENCODING 80
SWIDTH 667 0
DWIDTH 9 0
BBX 9 10 0 0
BITMAP
3F00
1080
1080
2080
2100
3E00
2000
4000
4000
E000
ENDCHAR

STARTCHAR Q
ENCODING 81
SWIDTH 778 0
DWIDTH 11 0
BBX 9 13 1 -3
BITMAP
1E00
2100
4080
4080
8080
8080
9900
A500
6600
3E00
0200
0280
0100
ENDCHAR

STARTCHAR R
ENCODING 82
SWIDTH 741 0
DWIDTH 10 0
BBX 10 10 0 0
BITMAP
3F80
1040
1040
2080
3F00
2400
2200
4200
4240
E180
ENDCHAR

STARTCHAR S
ENCODING 83
SWIDTH 667 0
DWIDTH 9 0
BBX 8 10 0 0
BITMAP
1D
23
41
40
38
04
02
82
C4
B8
ENDCHAR

STARTCHAR T
ENCODING 84
SWIDTH 685 0
DWIDTH 10 0
BBX 9 10 1 0
BITMAP
7F80
4880
8900
9100
1000
1000
1000
2000
2000
7000
ENDCHAR

STARTCHAR U
ENCODING 85
SWIDTH 815 0
DWIDTH 11 0
BBX 10 10 1 0
BITMAP
71C0
2080
2080
4100
4100
4100
8200
8200
8400
7800
ENDCHAR

STARTCHAR V
ENCODING 86
SWIDTH 704 0
DWIDTH 10 0
BBX 9 10 2 0
BITMAP
E380
4100
4200
4200
4400
4800
5000
5000
6000
4000
ENDCHAR

STARTCHAR W
ENCODING 87
SWIDTH 926 0
DWIDTH 13 0
BBX 13 10 1 0
BITMAP
E738
4210
4220
4620
4640
4A40
5280
5280
6300
4200
ENDCHAR

STARTCHAR X
ENCODING 88
SWIDTH 704 0
DWIDTH 10 0
BBX 10 10 0 0
BITMAP
71C0
2080
1100
1200
0C00
0C00
1400
2200
4200
E700
ENDCHAR

STARTCHAR Y
ENCODING 89
SWIDTH 685 0
DWIDTH 10 0
BBX 9 10 2 0
BITMAP
E380
4100
2200
2400
1800
1000
1000
2000
2000
7000
ENDCHAR

STARTCHAR Z
ENCODING 90
SWIDTH 667 0
DWIDTH 9 0
BBX 10 10 0 0
BITMAP
3FC0
2080
4100
0200
0400
0800
1000
2080
4100
FF00
ENDCHAR

STARTCHAR bracketleft
ENCODING 91
SWIDTH 333 0
DWIDTH 5 0
BBX 6 13 0 -3
BITMAP
1C
10
10
20
20
20
20
40
40
40
80
80
E0
ENDCHAR

STARTCHAR backslash
ENCODING 92
SWIDTH 606 0
DWIDTH 8 0
BBX 2 10 4 0
BITMAP
80
80
80
80
80
40
40
40
40
40
ENDCHAR

STARTCHAR bracketright
ENCODING 93
SWIDTH 333 0
DWIDTH 5 0
BBX 6 13 -1 -3
BITMAP
1C
04
04
08
08
08
10
10
10
10
20
20
E0
ENDCHAR

STARTCHAR asciicircum
ENCODING 94
SWIDTH 606 0
DWIDTH 8 0
BBX 5 5 3 5
BITMAP
20
20
50
50
88
ENDCHAR

STARTCHAR underscore
ENCODING 95
SWIDTH 500 0
DWIDTH 7 0
BBX 7 1 0 -2
BITMAP
FE
ENDCHAR

STARTCHAR quoteleft
ENCODING 96
SWIDTH 204 0
DWIDTH 3 0
BBX 2 3 1 7
BITMAP
40
80
80
ENDCHAR

STARTCHAR a
ENCODING 97
SWIDTH 574 0
DWIDTH 8 0
BBX 7 7 1 0
BITMAP
34
4C
84
88
88
9A
64
ENDCHAR

STARTCHAR b
ENCODING 98
SWIDTH 556 0
DWIDTH 8 0
BBX 6 10 1 0
BITMAP
60
20
20
58
64
44
84
84
88
70
ENDCHAR

STARTCHAR c
ENCODING 99
SWIDTH 444 0
DWIDTH 6 0
BBX 5 7 0 0
BITMAP
30
48
88
80
80
90
60
ENDCHAR

STARTCHAR d
ENCODING 100
SWIDTH 611 0
DWIDTH 9 0
BBX 7 10 1 0
BITMAP
06
02
02
34
4C
84
84
88
9A
6C
ENDCHAR

STARTCHAR e
ENCODING 101
SWIDTH 444 0
DWIDTH 6 0
BBX 5 7 0 0
BITMAP
30
48
88
F8
80
90
60
ENDCHAR

STARTCHAR f
ENCODING 102
SWIDTH 333 0
DWIDTH 5 0
BBX 6 12 0 -2
BITMAP
0C
10
10
78
20
20
20
40
40
40
80
80
ENDCHAR

STARTCHAR g
ENCODING 103
SWIDTH 537 0
DWIDTH 8 0
BBX 8 10 0 -3
BITMAP
1D
22
22
22
3C
40
7C
82
82
7C
ENDCHAR

STARTCHAR h
ENCODING 104
SWIDTH 611 0
DWIDTH 9 0
BBX 7 10 1 0
BITMAP
60
20
20
58
64
44
44
88
8A
84
ENDCHAR

STARTCHAR i
ENCODING 105
SWIDTH 333 0
DWIDTH 5 0
BBX 3 10 1 0
BITMAP
20
00
00
C0
40
40
40
80
A0
C0
ENDCHAR

STARTCHAR j
ENCODING 106
SWIDTH 315 0
DWIDTH 4 0
BBX 6 13 -2 -3
BITMAP
04
00
00
18
08
08
10
10
10
10
20
A0
C0
ENDCHAR

STARTCHAR k
ENCODING 107
SWIDTH 556 0
DWIDTH 8 0
BBX 6 10 1 0
BITMAP
60
20
20
58
64
44
78
90
94
88
ENDCHAR

STARTCHAR l
ENCODING 108
SWIDTH 333 0
DWIDTH 5 0
BBX 3 10 1 0
BITMAP
60
20
20
40
40
40
40
80
A0
C0
ENDCHAR

STARTCHAR m
ENCODING 109
SWIDTH 889 0
DWIDTH 12 0
BBX 11 7 1 0
BITMAP
D980
6640
4440
4440
8880
88A0
88C0
ENDCHAR

STARTCHAR n
ENCODING 110
SWIDTH 611 0
DWIDTH 9 0
BBX 7 7 1 0
BITMAP
D8
64
44
44
88
8A
8C
ENDCHAR

STARTCHAR o
ENCODING 111
SWIDTH 500 0
DWIDTH 7 0
BBX 6 7 0 0
BITMAP
38
44
84
84
84
88
70
ENDCHAR

STARTCHAR p
ENCODING 112
SWIDTH 574 0
DWIDTH 8 0
BBX 8 10 -1 -3
BITMAP
36
19
11
21
21
32
2C
40
40
E0
ENDCHAR

STARTCHAR q
ENCODING 113
SWIDTH 556 0
DWIDTH 8 0
BBX 6 10 1 -3
BITMAP
34
4C
84
88
88
98
68
10
10
38
ENDCHAR

STARTCHAR r
ENCODING 114
SWIDTH 444 0
DWIDTH 6 0
BBX 5 7 1 0
BITMAP
D8
68
40
40
80
80
80
ENDCHAR

STARTCHAR s
ENCODING 115
SWIDTH 444 0
DWIDTH 6 0
BBX 6 7 0 0
BITMAP
3C
44
40
30
08
88
F0
ENDCHAR

STARTCHAR t
ENCODING 116
SWIDTH 352 0
DWIDTH 5 0
BBX 4 9 1 0
BITMAP
20
20
F0
40
40
80
90
90
60
ENDCHAR

STARTCHAR u
ENCODING 117
SWIDTH 611 0
DWIDTH 9 0
BBX 7 7 1 0
BITMAP
C4
44
44
88
88
8A
74
ENDCHAR

STARTCHAR v
ENCODING 118
SWIDTH 519 0
DWIDTH 7 0
BBX 6 7 1 0
BITMAP
C8
44
44
84
88
90
60
ENDCHAR

STARTCHAR w
ENCODING 119
SWIDTH 778 0
DWIDTH 11 0
BBX 10 7 1 0
BITMAP
C480
4440
4440
8840
8880
9900
6600
ENDCHAR

STARTCHAR x
ENCODING 120
SWIDTH 500 0
DWIDTH 7 0
BBX 7 7 0 0
BITMAP
36
5A
10
10
10
AA
CC
ENDCHAR

STARTCHAR y
ENCODING 121
SWIDTH 500 0
DWIDTH 7 0
BBX 7 10 0 -3
BITMAP
42
A2
24
24
18
18
10
10
A0
C0
ENDCHAR

STARTCHAR z
ENCODING 122
SWIDTH 463 0
DWIDTH 6 0
BBX 7 7 0 0
BITMAP
32
5C
08
10
20
64
B8
ENDCHAR

STARTCHAR braceleft
ENCODING 123
SWIDTH 333 0
DWIDTH 5 0
BBX 5 13 1 -3
BITMAP
18
20
20
20
20
40
80
40
40
80
80
80
40
ENDCHAR

STARTCHAR bar
ENCODING 124
SWIDTH 606 0
DWIDTH 8 0
BBX 1 13 4 -3
BITMAP
80
80
80
80
80
80
80
80
80
80
80
80
80
ENDCHAR

STARTCHAR braceright
ENCODING 125
SWIDTH 333 0
DWIDTH 5 0
BBX 5 13 -1 -3
BITMAP
10
08
08
08
10
10
08
10
20
20
20
20
C0
ENDCHAR

STARTCHAR asciitilde
ENCODING 126
SWIDTH 606 0
DWIDTH 8 0
BBX 7 2 1 4
BITMAP
72
9C
ENDCHAR

STARTCHAR space
ENCODING 160
SWIDTH 278 0
DWIDTH 5 0
BBX 0 0 0 0
BITMAP
ENDCHAR

STARTCHAR Aogonek
ENCODING 161
SWIDTH 704 0
DWIDTH 10 0
BBX 10 12 0 -2
BITMAP
0100
0300
0500
0500
0900
1100
1F00
2100
4100
E380
0100
00C0
ENDCHAR

STARTCHAR afii240
ENCODING 162
SWIDTH 444 0
DWIDTH 6 0
BBX 8 7 -1 0
BITMAP
77
24
28
38
48
44
EE
ENDCHAR

STARTCHAR Rcommaaccent
ENCODING 163
SWIDTH 741 0
DWIDTH 10 0
BBX 10 14 0 -4
BITMAP
3F80
1040
1040
2080
3F00
2400
2200
4200
4240
E180
0000
0C00
0400
0800
ENDCHAR

STARTCHAR currency
ENCODING 164
SWIDTH 606 0
DWIDTH 8 0
BBX 6 6 1 2
BITMAP
B4
48
84
84
48
B4
ENDCHAR

STARTCHAR Itilde
ENCODING 165
SWIDTH 407 0
DWIDTH 5 0
BBX 7 13 0 0
BITMAP
1A
2C
00
38
10
10
20
20
20
20
40
40
E0
ENDCHAR

STARTCHAR Lcommaaccent
ENCODING 166
SWIDTH 667 0
DWIDTH 9 0
BBX 8 14 0 -4
BITMAP
38
10
10
20
20
20
21
41
42
FE
00
30
10
20
ENDCHAR

STARTCHAR section
ENCODING 167
SWIDTH 500 0
DWIDTH 7 0
BBX 6 13 1 -3
BITMAP
1C
24
20
30
50
48
48
48
50
30
10
90
E0
ENDCHAR

STARTCHAR hungarumlaut
ENCODING 168
SWIDTH 333 0
DWIDTH 5 0
BBX 6 2 1 8
BITMAP
6C
90
ENDCHAR

STARTCHAR Scaron
ENCODING 169
SWIDTH 667 0
DWIDTH 9 0
BBX 8 13 0 0
BITMAP
0A
04
00
1D
23
41
40
38
04
02
82
C4
B8
ENDCHAR

STARTCHAR Emacron
ENCODING 170
SWIDTH 722 0
DWIDTH 10 0
BBX 10 12 0 0
BITMAP
0F80
0000
3FC0
1040
1040
2200
3E00
2400
2480
4080
4100
FF00
ENDCHAR

STARTCHAR Gcommaaccent
ENCODING 171
SWIDTH 778 0
DWIDTH 11 0
BBX 10 14 1 -4
BITMAP
0F40
30C0
4080
4000
8000
8380
8100
8100
4300
3D00
0000
1800
0800
1000
ENDCHAR

STARTCHAR afii237
ENCODING 172
SWIDTH 556 0
DWIDTH 10 0
BBX 9 10 1 0
BITMAP
7F80
4880
8900
9100
1000
FE00
1000
2000
2000
7000
ENDCHAR

STARTCHAR hyphen
ENCODING 173
SWIDTH 333 0
DWIDTH 5 0
BBX 3 1 1 3
BITMAP
E0
ENDCHAR

STARTCHAR Zcaron
ENCODING 174
SWIDTH 667 0
DWIDTH 9 0
BBX 10 13 0 0
BITMAP
0500
0200
0000
3FC0
2080
4100
0200
0400
0800
1000
2080
4100
FF00
ENDCHAR

STARTCHAR macron
ENCODING 175
SWIDTH 333 0
DWIDTH 5 0
BBX 5 1 1 8
BITMAP
F8
ENDCHAR

STARTCHAR degree
ENCODING 176
SWIDTH 400 0
DWIDTH 6 0
BBX 4 4 2 6
BITMAP
60
90
90
60
ENDCHAR

STARTCHAR aogonek
ENCODING 177
SWIDTH 574 0
DWIDTH 8 0
BBX 8 9 1 -2
BITMAP
34
4C
84
88
88
9A
64
04
03
ENDCHAR

STARTCHAR ogonek
ENCODING 178
SWIDTH 333 0
DWIDTH 5 0
BBX 3 2 1 -2
BITMAP
80
60
ENDCHAR

STARTCHAR rcommaaccent
ENCODING 179
SWIDTH 444 0
DWIDTH 6 0
BBX 5 11 1 -4
BITMAP
D8
68
40
40
80
80
80
00
C0
40
80
ENDCHAR

STARTCHAR acute
ENCODING 180
SWIDTH 333 0
DWIDTH 5 0
BBX 3 2 2 8
BITMAP
60
80
ENDCHAR

STARTCHAR itilde
ENCODING 181
SWIDTH 333 0
DWIDTH 5 0
BBX 5 10 0 0
BITMAP
68
B0
00
60
20
20
20
40
50
60
ENDCHAR

STARTCHAR lcommaaccent
ENCODING 182
SWIDTH 333 0
DWIDTH 5 0
BBX 3 14 1 -4
BITMAP
60
20
20
40
40
40
40
80
A0
C0
00
C0
40
80
ENDCHAR

STARTCHAR caron
ENCODING 183
SWIDTH 333 0
DWIDTH 5 0
BBX 3 2 2 8
BITMAP
A0
40
ENDCHAR

STARTCHAR commaaccent
ENCODING 184
SWIDTH 333 0
DWIDTH 5 0
BBX 2 3 1 -4
BITMAP
C0
40
80
ENDCHAR

STARTCHAR scaron
ENCODING 185
SWIDTH 444 0
DWIDTH 6 0
BBX 6 10 0 0
BITMAP
14
08
00
3C
44
40
30
08
88
F0
ENDCHAR

STARTCHAR emacron
ENCODING 186
SWIDTH 444 0
DWIDTH 6 0
BBX 6 9 0 0
BITMAP
7C
00
30
48
88
F8
80
90
60
ENDCHAR

STARTCHAR gcommaaccent
ENCODING 187
SWIDTH 537 0
DWIDTH 8 0
BBX 8 14 0 -3
BITMAP
04
08
0C
00
1D
22
22
22
3C
40
7C
82
82
7C
ENDCHAR

STARTCHAR afii253
ENCODING 188
SWIDTH 278 0
DWIDTH 5 0
BBX 5 9 0 0
BITMAP
10
10
78
20
20
F0
48
48
30
ENDCHAR

STARTCHAR afii238
ENCODING 189
SWIDTH 685 0
DWIDTH 10 0
BBX 10 10 0 0
BITMAP
3700
1880
1080
2040
2040
2040
2080
4880
4900
E600
ENDCHAR

STARTCHAR zcaron
ENCODING 190
SWIDTH 463 0
DWIDTH 6 0
BBX 7 10 0 0
BITMAP
14
08
00
32
5C
08
10
20
64
B8
ENDCHAR

STARTCHAR afii254
ENCODING 191
SWIDTH 482 0
DWIDTH 7 0
BBX 6 10 1 -3
BITMAP
D8
6C
44
44
88
88
88
10
50
60
ENDCHAR

STARTCHAR Amacron
ENCODING 192
SWIDTH 704 0
DWIDTH 10 0
BBX 10 12 0 0
BITMAP
07C0
0000
0100
0300
0500
0500
0900
1100
1F00
2100
4100
E380
ENDCHAR

STARTCHAR Aacute
ENCODING 193
SWIDTH 704 0
DWIDTH 10 0
BBX 10 13 0 0
BITMAP
00C0
0100
0000
0100
0300
0500
0500
0900
1100
1F00
2100
4100
E380
ENDCHAR

STARTCHAR Acircumflex
ENCODING 194
SWIDTH 704 0
DWIDTH 10 0
BBX 9 13 0 0
BITMAP
0100
0280
0000
0100
0300
0500
0500
0900
1100
1F00
2100
4100
E380
ENDCHAR

STARTCHAR Atilde
ENCODING 195
SWIDTH 704 0
DWIDTH 10 0
BBX 10 13 0 0
BITMAP
0340
0580
0000
0100
0300
0500
0500
0900
1100
1F00
2100
4100
E380
ENDCHAR

STARTCHAR Adieresis
ENCODING 196
SWIDTH 704 0
DWIDTH 10 0
BBX 10 12 0 0
BITMAP
0240
0000
0100
0300
0500
0500
0900
1100
1F00
2100
4100
E380
ENDCHAR

STARTCHAR Aring
ENCODING 197
SWIDTH 704 0
DWIDTH 10 0
BBX 10 14 0 0
BITMAP
0080
0140
0080
0000
0100
0300
0500
0500
0900
1100
1F00
2100
4100
E380
ENDCHAR

STARTCHAR AE
ENCODING 198
SWIDTH 870 0
DWIDTH 12 0
BBX 14 10 0 0
BITMAP
07FC
0284
0484
0520
09E0
1140
1F48
2208
4210
E7F0
ENDCHAR

STARTCHAR Iogonek
ENCODING 199
SWIDTH 407 0
DWIDTH 5 0
BBX 5 12 0 -2
BITMAP
38
10
10
20
20
20
20
40
40
E0
40
30
ENDCHAR

STARTCHAR Ccaron
ENCODING 200
SWIDTH 722 0
DWIDTH 10 0
BBX 9 13 1 0
BITMAP
0A00
0400
0000
0E80
3180
4100
4000
8000
8000
8000
8100
4200
3C00
ENDCHAR

STARTCHAR Eacute
ENCODING 201
SWIDTH 722 0
DWIDTH 10 0
BBX 10 13 0 0
BITMAP
0180
0200
0000
3FC0
1040
1040
2200
3E00
2400
2480
4080
4100
FF00
ENDCHAR

STARTCHAR Eogonek
ENCODING 202
SWIDTH 722 0
DWIDTH 10 0
BBX 10 12 0 -2
BITMAP
3FC0
1040
1040
2200
3E00
2400
2480
4080
4100
FF00
0400
0300
ENDCHAR

STARTCHAR Edieresis
ENCODING 203
SWIDTH 722 0
DWIDTH 10 0
BBX 10 12 0 0
BITMAP
0480
0000
3FC0
1040
1040
2200
3E00
2400
2480
4080
4100
FF00
ENDCHAR

STARTCHAR Edotaccent
ENCODING 204
SWIDTH 722 0
DWIDTH 10 0
BBX 10 12 0 0
BITMAP
0200
0000
3FC0
1040
1040
2200
3E00
2400
2480
4080
4100
FF00
ENDCHAR

STARTCHAR Iacute
ENCODING 205
SWIDTH 407 0
DWIDTH 5 0
BBX 7 13 0 0
BITMAP
06
08
00
38
10
10
20
20
20
20
40
40
E0
ENDCHAR

STARTCHAR Icircumflex
ENCODING 206
SWIDTH 407 0
DWIDTH 5 0
BBX 6 13 0 0
BITMAP
08
14
00
38
10
10
20
20
20
20
40
40
E0
ENDCHAR

STARTCHAR Imacron
ENCODING 207
SWIDTH 407 0
DWIDTH 5 0
BBX 7 12 0 0
BITMAP
3E
00
38
10
10
20
20
20
20
40
40
E0
ENDCHAR

STARTCHAR Eth
ENCODING 208
SWIDTH 778 0
DWIDTH 11 0
BBX 10 10 0 0
BITMAP
3F00
1080
1040
2040
7840
2040
2080
4080
4100
FE00
ENDCHAR

STARTCHAR Ncommaaccent
ENCODING 209
SWIDTH 815 0
DWIDTH 11 0
BBX 11 14 0 -4
BITMAP
30E0
1040
1840
2880
2480
2480
2280
4300
4100
E100
0000
0C00
0400
0800
ENDCHAR

STARTCHAR Omacron
ENCODING 210
SWIDTH 778 0
DWIDTH 11 0
BBX 9 12 1 0
BITMAP
1F00
0000
1E00
2100
4080
4080
8080
8080
8100
8100
4200
3C00
ENDCHAR

STARTCHAR Kcommaaccent
ENCODING 211
SWIDTH 741 0
DWIDTH 10 0
BBX 10 14 0 -4
BITMAP
39C0
1080
1100
2200
2C00
3400
2200
4200
4100
E380
0000
1800
0800
1000
ENDCHAR

STARTCHAR Ocircumflex
ENCODING 212
SWIDTH 778 0
DWIDTH 11 0
BBX 9 13 1 0
BITMAP
0400
0A00
0000
1E00
2100
4080
4080
8080
8080
8100
8100
4200
3C00
ENDCHAR

STARTCHAR Otilde
ENCODING 213
SWIDTH 778 0
DWIDTH 11 0
BBX 9 13 1 0
BITMAP
0D00
1600
0000
1E00
2100
4080
4080
8080
8080
8100
8100
4200
3C00
ENDCHAR

STARTCHAR Odieresis
ENCODING 214
SWIDTH 778 0
DWIDTH 11 0
BBX 9 12 1 0
BITMAP
0900
0000
1E00
2100
4080
4080
8080
8080
8100
8100
4200
3C00
ENDCHAR

STARTCHAR multiply
ENCODING 215
SWIDTH 606 0
DWIDTH 8 0
BBX 6 7 1 1
BITMAP
84
48
30
30
30
48
84
ENDCHAR

STARTCHAR Oslash
ENCODING 216
SWIDTH 778 0
DWIDTH 11 0
BBX 9 10 1 0
BITMAP
1E80
2100
4280
4480
8880
8880
9100
A100
4200
BC00
ENDCHAR

STARTCHAR Uogonek
ENCODING 217
SWIDTH 815 0
DWIDTH 11 0
BBX 10 12 1 -2
BITMAP
71C0
2080
2080
4100
4100
4100
8200
8200
8400
7800
2000
1800
ENDCHAR

STARTCHAR Uacute
ENCODING 218
SWIDTH 815 0
DWIDTH 11 0
BBX 10 13 1 0
BITMAP
0600
0800
0000
71C0
2080
2080
4100
4100
4100
8200
8200
8400
7800
ENDCHAR

STARTCHAR Ucircumflex
ENCODING 219
SWIDTH 815 0
DWIDTH 11 0
BBX 10 13 1 0
BITMAP
0400
0A00
0000
71C0
2080
2080
4100
4100
4100
8200
8200
8400
7800
ENDCHAR

STARTCHAR Udieresis
ENCODING 220
SWIDTH 815 0
DWIDTH 11 0
BBX 10 12 1 0
BITMAP
0900
0000
71C0
2080
2080
4100
4100
4100
8200
8200
8400
7800
ENDCHAR

STARTCHAR Utilde
ENCODING 221
SWIDTH 815 0
DWIDTH 11 0
BBX 10 13 1 0
BITMAP
0680
0B00
0000
71C0
2080
2080
4100
4100
4100
8200
8200
8400
7800
ENDCHAR

STARTCHAR Umacron
ENCODING 222
SWIDTH 815 0
DWIDTH 11 0
BBX 10 12 1 0
BITMAP
1F00
0000
71C0
2080
2080
4100
4100
4100
8200
8200
8400
7800
ENDCHAR

STARTCHAR germandbls
ENCODING 223
SWIDTH 556 0
DWIDTH 8 0
BBX 8 12 0 -2
BITMAP
06
09
11
12
24
22
22
42
54
58
80
80
ENDCHAR

STARTCHAR amacron
ENCODING 224
SWIDTH 574 0
DWIDTH 8 0
BBX 7 9 1 0
BITMAP
3E
00
34
4C
84
88
88
9A
64
ENDCHAR

STARTCHAR aacute
ENCODING 225
SWIDTH 574 0
DWIDTH 8 0
BBX 7 10 1 0
BITMAP
0C
10
00
34
4C
84
88
88
9A
64
ENDCHAR

STARTCHAR acircumflex
ENCODING 226
SWIDTH 574 0
DWIDTH 8 0
BBX 7 10 1 0
BITMAP
08
14
00
34
4C
84
88
88
9A
64
ENDCHAR

STARTCHAR atilde
ENCODING 227
SWIDTH 574 0
DWIDTH 8 0
BBX 7 10 1 0
BITMAP
1A
2C
00
34
4C
84
88
88
9A
64
ENDCHAR

STARTCHAR adieresis
ENCODING 228
SWIDTH 574 0
DWIDTH 8 0
BBX 7 9 1 0
BITMAP
12
00
34
4C
84
88
88
9A
64
ENDCHAR

STARTCHAR aring
ENCODING 229
SWIDTH 574 0
DWIDTH 8 0
BBX 7 11 1 0
BITMAP
08
14
08
00
34
4C
84
88
88
9A
64
ENDCHAR

STARTCHAR ae
ENCODING 230
SWIDTH 722 0
DWIDTH 10 0
BBX 10 7 0 0
BITMAP
3580
4E40
8440
8FC0
8800
9880
6700
ENDCHAR

STARTCHAR iogonek
ENCODING 231
SWIDTH 333 0
DWIDTH 5 0
BBX 3 12 1 -2
BITMAP
20
00
00
C0
40
40
40
80
A0
C0
80
60
ENDCHAR

STARTCHAR ccaron
ENCODING 232
SWIDTH 444 0
DWIDTH 6 0
BBX 5 10 0 0
BITMAP
28
10
00
30
48
88
80
80
90
60
ENDCHAR

STARTCHAR eacute
ENCODING 233
SWIDTH 444 0
DWIDTH 6 0
BBX 5 10 0 0
BITMAP
18
20
00
30
48
88
F8
80
90
60
ENDCHAR

STARTCHAR eogonek
ENCODING 234
SWIDTH 444 0
DWIDTH 6 0
BBX 5 9 0 -2
BITMAP
30
48
88
F8
80
90
60
40
30
ENDCHAR

STARTCHAR edieresis
ENCODING 235
SWIDTH 444 0
DWIDTH 6 0
BBX 6 9 0 0
BITMAP
24
00
30
48
88
F8
80
90
60
ENDCHAR

STARTCHAR edotaccent
ENCODING 236
SWIDTH 444 0
DWIDTH 6 0
BBX 5 9 0 0
BITMAP
10
00
30
48
88
F8
80
90
60
ENDCHAR

STARTCHAR iacute
ENCODING 237
SWIDTH 333 0
DWIDTH 5 0
BBX 4 10 1 0
BITMAP
30
40
00
C0
40
40
40
80
A0
C0
ENDCHAR

STARTCHAR icircumflex
ENCODING 238
SWIDTH 333 0
DWIDTH 5 0
BBX 4 10 1 0
BITMAP
20
50
00
C0
40
40
40
80
A0
C0
ENDCHAR

STARTCHAR imacron
ENCODING 239
SWIDTH 333 0
DWIDTH 5 0
BBX 5 9 0 0
BITMAP
F8
00
60
20
20
20
40
50
60
ENDCHAR

STARTCHAR dcroat
ENCODING 240
SWIDTH 611 0
DWIDTH 9 0
BBX 8 10 1 0
BITMAP
06
0F
02
34
4C
84
84
88
9A
6C
ENDCHAR

STARTCHAR ncommaaccent
ENCODING 241
SWIDTH 611 0
DWIDTH 9 0
BBX 7 11 1 -4
BITMAP
D8
64
44
44
88
8A
8C
00
60
20
40
ENDCHAR

STARTCHAR omacron
ENCODING 242
SWIDTH 500 0
DWIDTH 7 0
BBX 7 9 0 0
BITMAP
3E
00
38
44
84
84
84
88
70
ENDCHAR

STARTCHAR kcommaaccent
ENCODING 243
SWIDTH 556 0
DWIDTH 8 0
BBX 6 14 1 -4
BITMAP
60
20
20
58
64
44
78
90
94
88
00
60
20
40
ENDCHAR

STARTCHAR ocircumflex
ENCODING 244
SWIDTH 500 0
DWIDTH 7 0
BBX 6 10 0 0
BITMAP
08
14
00
38
44
84
84
84
88
70
ENDCHAR

STARTCHAR otilde
ENCODING 245
SWIDTH 500 0
DWIDTH 7 0
BBX 7 10 0 0
BITMAP
1A
2C
00
38
44
84
84
84
88
70
ENDCHAR

STARTCHAR odieresis
ENCODING 246
SWIDTH 500 0
DWIDTH 7 0
BBX 6 9 0 0
BITMAP
24
00
38
44
84
84
84
88
70
ENDCHAR

STARTCHAR divide
ENCODING 247
SWIDTH 606 0
DWIDTH 8 0
BBX 7 7 1 1
BITMAP
10
00
00
FE
00
00
10
ENDCHAR

STARTCHAR oslash
ENCODING 248
SWIDTH 500 0
DWIDTH 7 0
BBX 6 7 0 0
BITMAP
34
4C
94
A4
A4
C8
B0
ENDCHAR

STARTCHAR uogonek
ENCODING 249
SWIDTH 611 0
DWIDTH 9 0
BBX 8 9 1 -2
BITMAP
C4
44
44
88
88
8A
74
04
03
ENDCHAR

STARTCHAR uacute
ENCODING 250
SWIDTH 611 0
DWIDTH 9 0
BBX 7 10 1 0
BITMAP
0C
10
00
C4
44
44
88
88
8A
74
ENDCHAR

STARTCHAR ucircumflex
ENCODING 251
SWIDTH 611 0
DWIDTH 9 0
BBX 7 10 1 0
BITMAP
10
28
00
C4
44
44
88
88
8A
74
ENDCHAR

STARTCHAR udieresis
ENCODING 252
SWIDTH 611 0
DWIDTH 9 0
BBX 7 9 1 0
BITMAP
24
00
C4
44
44
88
88
8A
74
ENDCHAR

STARTCHAR utilde
ENCODING 253
SWIDTH 611 0
DWIDTH 9 0
BBX 7 10 1 0
BITMAP
1A
2C
00
C4
44
44
88
88
8A
74
ENDCHAR

STARTCHAR umacron
ENCODING 254
SWIDTH 611 0
DWIDTH 9 0
BBX 7 9 1 0
BITMAP
7C
00
C4
44
44
88
88
8A
74
ENDCHAR

STARTCHAR dotaccent
ENCODING 255
SWIDTH 333 0
DWIDTH 5 0
BBX 1 1 3 8
BITMAP
80
ENDCHAR
ENDFONT
